# xmcd
#
# Track frame offsets:
#	150
#	18930
#	38289
#	58705
#	72528
#	93950
#	102956
#	113496
#	131589
#	140643
#	152501
#	167502
#	178809
#	197050
#	212984
#
# Disc length: 2965 seconds
#
# Revision: 1
# Processed by: cddbd v1.4b41PL2 Copyright (c) Steve Scherf et al.
# Submitted via: audiograbber 1.80
#
DISCID=c90b930f
DTITLE=ΕΥΑΝΘΙΑ ΡEΜΠΟΥΤΣΙΚΑ - ΤΟ ΑΣΤEΡΙ ΚΙ Η ΕΥΧΗ
DYEAR=1900
DGENRE=
TTITLE0=Ο μικρός πρίγκηπας
TTITLE1=Θόλασσα από ηλιοτρόπια
TTITLE2=Alexandria
TTITLE3=Τα γέλια του κόσμου
TTITLE4=Από στιγμή σε στιγμή
TTITLE5=Λίγο πρίν νυχτώσει
TTITLE6=Φευγαλέο βλέμα
TTITLE7=Μέσα από σένα
TTITLE8=Το αστέρι κι η Ευχή
TTITLE9=Τα μυστικό της σελήνης
TTITLE10=Carousel
TTITLE11=Σινέ Rex
TTITLE12=Alexandria
TTITLE13=Μετό τη βροχή
TTITLE14=Το αστέρι κι η Ευχή
EXTD=
EXTT0=
EXTT1=
EXTT2=
EXTT3=
EXTT4=
EXTT5=
EXTT6=
EXTT7=
EXTT8=
EXTT9=
EXTT10=
EXTT11=
EXTT12=
EXTT13=
EXTT14=
PLAYORDER=
